<svg xmlns="http://www.w3.org/2000/svg" width="41" height="40" viewBox="0 0 41 40" fill="none">
  <path d="M18.75 11.4457C16.8999 10.5442 14.8215 10.0383 12.625 10.0383C10.4285 10.0383 8.35009 10.5442 6.5 11.4457V28.9457C8.35009 28.0442 10.4285 27.5383 12.625 27.5383C15.5451 27.5383 18.2563 28.4323 20.5 29.9615C22.7437 28.4323 25.4549 27.5383 28.375 27.5383C30.5715 27.5383 32.6499 28.0442 34.5 28.9457V11.4457C32.6499 10.5442 30.5715 10.0383 28.375 10.0383C26.1785 10.0383 24.1001 10.5442 22.25 11.4457V24.0383C22.25 25.0048 21.4665 25.7883 20.5 25.7883C19.5335 25.7883 18.75 25.0048 18.75 24.0383V11.4457Z" fill="#F8DD00"/>
</svg>