<svg xmlns="http://www.w3.org/2000/svg" width="101" height="100" viewBox="0 0 101 100" fill="none">
  <path d="M12.0489 59.7014C16.3281 63.9805 42.2198 85.518 44.0156 87.3139C45.8073 89.1055 48.1531 89.9972 50.4989 89.9972C52.8448 89.9972 55.1906 89.1014 56.9823 87.3139C58.7823 85.518 84.6739 63.9764 88.9489 59.7014C98.7948 49.8555 98.7948 33.8972 88.9489 24.0514C79.1031 14.2055 63.1448 14.2055 53.2989 24.0514C52.2323 25.118 51.3364 26.2847 50.4989 27.4805C49.6614 26.2847 48.7656 25.118 47.6989 24.0514C37.8531 14.2055 21.8948 14.2055 12.0489 24.0514C2.20309 33.8972 2.20309 49.8555 12.0489 59.7014Z" fill="#EF4444"/>
  <path d="M50.4999 62.5853C52.8011 62.5853 54.6666 60.7198 54.6666 58.4186C54.6666 56.1174 52.8011 54.252 50.4999 54.252C48.1987 54.252 46.3333 56.1174 46.3333 58.4186C46.3333 60.7198 48.1987 62.5853 50.4999 62.5853Z" fill="#EF4444"/>
  <path d="M62.9999 41.6663C65.3011 41.6663 67.1666 39.8009 67.1666 37.4997C67.1666 35.1985 65.3011 33.333 62.9999 33.333C60.6987 33.333 58.8333 35.1985 58.8333 37.4997C58.8333 39.8009 60.6987 41.6663 62.9999 41.6663Z" fill="#EF4444"/>
  <path d="M42.1667 45.8333C44.4679 45.8333 46.3333 43.9679 46.3333 41.6667C46.3333 39.3655 44.4679 37.5 42.1667 37.5C39.8655 37.5 38 39.3655 38 41.6667C38 43.9679 39.8655 45.8333 42.1667 45.8333Z" fill="#EF4444"/>
  <path d="M67.1667 37.5003L66.5833 39.5837V39.6253L66.4583 39.8337L54.0417 60.6253L53.875 60.8753L46.3333 58.417V45.8337H42.1667L39 44.3337H38.9583V44.292L38 41.667V18.042C41.5417 19.2087 44.875 21.2087 47.7083 24.042C48.75 25.1253 49.6667 26.292 50.5 27.4587C51.3333 26.292 52.25 25.1253 53.2917 24.042C56.125 21.2087 59.4583 19.2087 63 18.042L59.4583 33.3337H63L67.1667 37.5003Z" fill="#7F1D1D"/>
</svg>