<svg xmlns="http://www.w3.org/2000/svg" width="24" height="24" viewBox="0 0 24 24" fill="none">
  <path d="M10.9256 4.73625C11.2638 3.69534 12.7364 3.69534 13.0746 4.73625L14.283 8.4554C14.4343 8.92091 14.8681 9.23609 15.3576 9.23609H19.2681C20.3626 9.23609 20.8177 10.6366 19.9322 11.28L16.7685 13.5785C16.3725 13.8662 16.2068 14.3762 16.3581 14.8417L17.5665 18.5608C17.9047 19.6018 16.7133 20.4673 15.8279 19.824L12.6642 17.5255C12.2682 17.2378 11.732 17.2378 11.336 17.5255L8.17231 19.824C7.28685 20.4673 6.09548 19.6018 6.43369 18.5608L7.64212 14.8417C7.79337 14.3762 7.62767 13.8662 7.23169 13.5785L4.06799 11.28C3.18254 10.6366 3.6376 9.23609 4.73209 9.23609H8.64263C9.13209 9.23609 9.5659 8.92091 9.71715 8.4554L10.9256 4.73625Z" fill="#D1A800"/>
</svg>