<svg xmlns="http://www.w3.org/2000/svg" width="101" height="100" viewBox="0 0 101 100" fill="none">
  <path d="M12.0499 59.7004C16.3291 63.9796 42.2207 85.5171 44.0166 87.3129C45.8082 89.1046 48.1541 89.9962 50.4999 89.9962C52.8457 89.9962 55.1916 89.1004 56.9832 87.3129C58.7832 85.5171 84.6749 63.9754 88.9499 59.7004C98.7957 49.8546 98.7957 33.8962 88.9499 24.0504C79.1041 14.2046 63.1457 14.2046 53.2999 24.0504C52.2332 25.1171 51.3374 26.2837 50.4999 27.4796C49.6624 26.2837 48.7666 25.1171 47.6999 24.0504C37.8541 14.2046 21.8957 14.2046 12.0499 24.0504C2.20407 33.8962 2.20407 49.8546 12.0499 59.7004Z" fill="#EF4444"/>
  <path d="M62.5415 51.8747L50.8331 75.333L55.2915 88.6247C53.8331 89.5413 52.1665 89.9997 50.4998 89.9997C49.2081 89.9997 47.8748 89.7497 46.6665 89.1663L42.3748 76.333C42.0415 75.2497 42.1248 74.1247 42.6248 73.1247L54.1665 49.9997L46.7915 35.208C46.4998 34.6247 46.3331 33.9997 46.3331 33.333V22.833C46.8331 23.1663 47.2498 23.583 47.7081 24.0413C48.7498 25.1247 49.6665 26.2913 50.4998 27.458C51.3331 26.2913 52.2498 25.1247 53.2915 24.0413C53.7498 23.583 54.2081 23.1663 54.6665 22.833V32.333L62.5415 48.1247C63.1665 49.2913 63.1665 50.708 62.5415 51.8747Z" fill="#7F1D1D"/>
  <path d="M67.5834 57.9543L38.5001 65.6251C35.8209 66.3293 33.0793 64.7334 32.3751 62.0584L29.8168 52.3626C29.1126 49.6834 30.7084 46.9418 33.3834 46.2376L62.4668 38.5668C65.1459 37.8626 67.8876 39.4584 68.5917 42.1334L71.1501 51.8293C71.8584 54.5043 70.2584 57.2459 67.5834 57.9543Z" fill="white"/>
</svg>