<svg xmlns="http://www.w3.org/2000/svg" width="20" height="20" viewBox="0 0 20 20" fill="none">
  <path d="M13.5 15.6004H17V14.2004C17 13.0406 16.0598 12.1004 14.9 12.1004C14.2311 12.1004 13.6352 12.4132 13.2506 12.9004M13.5 15.6004H6.5M13.5 15.6004V14.2004C13.5 13.741 13.4115 13.3023 13.2506 12.9004M6.5 15.6004H3V14.2004C3 13.0406 3.9402 12.1004 5.1 12.1004C5.76892 12.1004 6.3648 12.4132 6.74937 12.9004M6.5 15.6004V14.2004C6.5 13.741 6.5885 13.3023 6.74937 12.9004M6.74937 12.9004C7.26545 11.6111 8.52637 10.7004 10 10.7004C11.4736 10.7004 12.7345 11.6111 13.2506 12.9004M12.1 6.50039C12.1 7.66019 11.1598 8.60039 10 8.60039C8.8402 8.60039 7.9 7.66019 7.9 6.50039C7.9 5.34059 8.8402 4.40039 10 4.40039C11.1598 4.40039 12.1 5.34059 12.1 6.50039ZM16.3 8.60039C16.3 9.37359 15.6732 10.0004 14.9 10.0004C14.1268 10.0004 13.5 9.37359 13.5 8.60039C13.5 7.82719 14.1268 7.20039 14.9 7.20039C15.6732 7.20039 16.3 7.82719 16.3 8.60039ZM6.5 8.60039C6.5 9.37359 5.8732 10.0004 5.1 10.0004C4.3268 10.0004 3.7 9.37359 3.7 8.60039C3.7 7.82719 4.3268 7.20039 5.1 7.20039C5.8732 7.20039 6.5 7.82719 6.5 8.60039Z" stroke="#A8A8A8" stroke-width="1.5" stroke-linecap="round" stroke-linejoin="round"/>
</svg>