<svg xmlns="http://www.w3.org/2000/svg" width="32" height="32" viewBox="0 0 32 32" fill="none">
  <path fill-rule="evenodd" clip-rule="evenodd" d="M8.9998 8.9998C8.9998 6.68021 10.8802 4.7998 13.1998 4.7998C14.2755 4.7998 15.2567 5.2042 15.9998 5.86926C16.7429 5.2042 17.7241 4.7998 18.7998 4.7998C21.1194 4.7998 22.9998 6.68021 22.9998 8.9998C22.9998 9.49069 22.9156 9.96191 22.7608 10.3998H24.3998C25.9462 10.3998 27.1998 11.6534 27.1998 13.1998C27.1998 14.7462 25.9462 15.9998 24.3998 15.9998H17.3998V14.5998C17.3998 13.8266 16.773 13.1998 15.9998 13.1998C15.2266 13.1998 14.5998 13.8266 14.5998 14.5998V15.9998H7.5998C6.05341 15.9998 4.7998 14.7462 4.7998 13.1998C4.7998 11.6534 6.05341 10.3998 7.5998 10.3998H9.23879C9.08402 9.96191 8.9998 9.49069 8.9998 8.9998ZM14.5998 10.3998V8.9998C14.5998 8.22661 13.973 7.5998 13.1998 7.5998C12.4266 7.5998 11.7998 8.22661 11.7998 8.9998C11.7998 9.773 12.4266 10.3998 13.1998 10.3998H14.5998ZM18.7998 10.3998C19.573 10.3998 20.1998 9.773 20.1998 8.9998C20.1998 8.22661 19.573 7.5998 18.7998 7.5998C18.0266 7.5998 17.3998 8.22661 17.3998 8.9998V10.3998H18.7998Z" fill="white"/>
  <path d="M14.5998 17.3998H6.1998V24.3998C6.1998 25.9462 7.45341 27.1998 8.9998 27.1998H14.5998V17.3998Z" fill="white"/>
  <path d="M17.3998 27.1998H22.9998C24.5462 27.1998 25.7998 25.9462 25.7998 24.3998V17.3998H17.3998V27.1998Z" fill="white"/>
</svg>