<svg xmlns="http://www.w3.org/2000/svg" width="32" height="32" viewBox="0 0 32 32" fill="none">
  <path d="M15.9998 1.33301C15.2638 1.33301 14.6665 1.93034 14.6665 2.66634C14.6665 2.92901 14.6665 7.73701 14.6665 7.99967C14.6665 8.73567 15.2638 9.33301 15.9998 9.33301C16.7358 9.33301 17.3332 8.73567 17.3332 7.99967C17.3332 7.73701 17.3332 2.92901 17.3332 2.66634C17.3332 1.93034 16.7358 1.33301 15.9998 1.33301Z" fill="#F8DD00"/>
  <path d="M20.9425 3.05749C20.4212 2.53616 19.5772 2.53749 19.0572 3.05749C18.8718 3.24416 15.4718 6.64283 15.2865 6.82816C14.7665 7.34816 14.7665 8.19349 15.2865 8.71349C15.8078 9.23483 16.6518 9.23483 17.1718 8.71349C17.3572 8.52816 20.7572 5.12816 20.9425 4.94283C21.4638 4.42283 21.4638 3.57749 20.9425 3.05749Z" fill="#F8DD00"/>
  <path d="M16.7149 8.71448C16.1936 9.23581 15.3496 9.23448 14.8296 8.71448C14.6443 8.52781 11.2443 5.12915 11.0589 4.94381C10.5389 4.42381 10.5389 3.57848 11.0589 3.05848C11.5803 2.53715 12.4243 2.53715 12.9443 3.05848C13.1296 3.24381 16.5296 6.64381 16.7149 6.82915C17.2349 7.34915 17.2349 8.19315 16.7149 8.71448Z" fill="#F8DD00"/>
  <path d="M8 6.66699H24C26.2093 6.66699 28 8.45766 28 10.667V12.0003H4V10.667C4 8.45766 5.79067 6.66699 8 6.66699Z" fill="#F8DD00"/>
  <path opacity="0.35" d="M8 28H24C26.2093 28 28 26.2093 28 24V12H4V24C4 26.2093 5.79067 28 8 28Z" fill="#F8DD00"/>
  <path d="M17.3332 12H14.6665V28H17.3332V12Z" fill="#F8DD00"/>
</svg>