<svg width="24" height="24" viewBox="0 0 24 24" fill="none" xmlns="http://www.w3.org/2000/svg">
<path d="M12.7421 3.90715C12.332 3.4971 11.6672 3.4971 11.2571 3.90715L3.90715 11.2571C3.4971 11.6672 3.4971 12.332 3.90715 12.7421C4.3172 13.1521 4.98202 13.1521 5.39207 12.7421L5.69961 12.4345V19.3496C5.69961 19.9295 6.16971 20.3996 6.74961 20.3996H8.84961C9.42951 20.3996 9.89961 19.9295 9.89961 19.3496V17.2496C9.89961 16.6697 10.3697 16.1996 10.9496 16.1996H13.0496C13.6295 16.1996 14.0996 16.6697 14.0996 17.2496V19.3496C14.0996 19.9295 14.5697 20.3996 15.1496 20.3996H17.2496C17.8295 20.3996 18.2996 19.9295 18.2996 19.3496V12.4345L18.6071 12.7421C19.0172 13.1521 19.682 13.1521 20.0921 12.7421C20.5021 12.332 20.5021 11.6672 20.0921 11.2571L12.7421 3.90715Z" fill="#F8DD00"/>
</svg>
