<svg width="24" height="24" viewBox="0 0 24 24" fill="none" xmlns="http://www.w3.org/2000/svg">
<path d="M3.59961 11.9996L5.46628 10.1329M5.46628 10.1329L11.9996 3.59961L18.5329 10.1329M5.46628 10.1329V19.4663C5.46628 19.9817 5.88414 20.3996 6.39961 20.3996H9.19961M18.5329 10.1329L20.3996 11.9996M18.5329 10.1329V19.4663C18.5329 19.9817 18.1151 20.3996 17.5996 20.3996H14.7996M9.19961 20.3996C9.71507 20.3996 10.1329 19.9817 10.1329 19.4663V15.7329C10.1329 15.2175 10.5508 14.7996 11.0663 14.7996H12.9329C13.4484 14.7996 13.8663 15.2175 13.8663 15.7329V19.4663C13.8663 19.9817 14.2841 20.3996 14.7996 20.3996M9.19961 20.3996H14.7996" stroke="#A1C1D8" stroke-width="1.67" stroke-linecap="round" stroke-linejoin="round"/>
</svg>
