<svg xmlns="http://www.w3.org/2000/svg" width="24" height="24" viewBox="0 0 24 24" fill="none">
  <path fill-rule="evenodd" clip-rule="evenodd" d="M20.4001 12.0001C20.4001 16.6393 16.6393 20.4001 12.0001 20.4001C7.36091 20.4001 3.6001 16.6393 3.6001 12.0001C3.6001 7.36091 7.36091 3.6001 12.0001 3.6001C16.6393 3.6001 20.4001 7.36091 20.4001 12.0001ZM13.0501 16.2001C13.0501 16.78 12.58 17.2501 12.0001 17.2501C11.4202 17.2501 10.9501 16.78 10.9501 16.2001C10.9501 15.6202 11.4202 15.1501 12.0001 15.1501C12.58 15.1501 13.0501 15.6202 13.0501 16.2001ZM12.0001 6.7501C11.4202 6.7501 10.9501 7.2202 10.9501 7.8001V12.0001C10.9501 12.58 11.4202 13.0501 12.0001 13.0501C12.58 13.0501 13.0501 12.58 13.0501 12.0001V7.8001C13.0501 7.2202 12.58 6.7501 12.0001 6.7501Z" fill="#EF4444"/>
</svg>