<svg xmlns="http://www.w3.org/2000/svg" width="32" height="32" viewBox="0 0 32 32" fill="none">
  <path d="M5.10742 16.6998C5.10742 15.54 6.04762 14.5998 7.20742 14.5998C8.36722 14.5998 9.30742 15.54 9.30742 16.6998V25.0998C9.30742 26.2596 8.36722 27.1998 7.20742 27.1998C6.04762 27.1998 5.10742 26.2596 5.10742 25.0998V16.6998Z" fill="white"/>
  <path d="M10.7074 16.4665V24.0693C10.7074 25.1299 11.3066 26.0994 12.2552 26.5737L12.325 26.6086C13.1026 26.9974 13.96 27.1998 14.8294 27.1998H22.412C23.7467 27.1998 24.8958 26.2577 25.1576 24.9489L26.8376 16.5489C27.1841 14.8163 25.8589 13.1998 24.092 13.1998H19.1074V7.5998C19.1074 6.05341 17.8538 4.7998 16.3074 4.7998C15.5342 4.7998 14.9074 5.42661 14.9074 6.1998V7.13314C14.9074 8.34481 14.5144 9.5238 13.7874 10.4931L11.8274 13.1065C11.1004 14.0758 10.7074 15.2548 10.7074 16.4665Z" fill="white"/>
</svg>