<svg xmlns="http://www.w3.org/2000/svg" width="41" height="40" viewBox="0 0 41 40" fill="none">
  <path d="M6.5 13C6.5 11.067 8.067 9.5 10 9.5H20.5C22.433 9.5 24 11.067 24 13V27C24 28.933 22.433 30.5 20.5 30.5H10C8.067 30.5 6.5 28.933 6.5 27V13Z" fill="#F8DD00"/>
  <path d="M28.4674 14.9348C27.8745 15.2312 27.5 15.8372 27.5 16.5V23.5C27.5 24.1629 27.8745 24.7688 28.4674 25.0653L31.9674 26.8153C32.5099 27.0865 33.1541 27.0575 33.67 26.7386C34.186 26.4198 34.5 25.8565 34.5 25.25V14.75C34.5 14.1435 34.186 13.5802 33.67 13.2614C33.1541 12.9425 32.5099 12.9135 31.9674 13.1848L28.4674 14.9348Z" fill="#F8DD00"/>
</svg>