<svg width="22" height="22" viewBox="0 0 22 22" fill="none" xmlns="http://www.w3.org/2000/svg">
<g clip-path="url(#clip0_2_223)">
<path d="M11 0.5C5.20105 0.5 0.5 5.20088 0.5 11C0.5 16.7991 5.20105 21.5 11 21.5C16.799 21.5 21.5 16.7991 21.5 11C21.5 5.20088 16.799 0.5 11 0.5ZM9.01804 16.0365C9.01804 15.3141 9.60379 14.7284 10.3262 14.7284C11.048 14.7284 11.6337 15.3141 11.6337 16.0365C11.6337 16.7581 11.048 17.3442 10.3262 17.3442C9.60379 17.3442 9.01804 16.7581 9.01804 16.0365ZM14.594 9.47635C14.4465 9.87802 14.233 10.2265 13.9913 10.5163C13.5054 11.0966 12.9295 11.4481 12.4556 11.7075C12.139 11.8787 11.8595 12.0105 11.6857 12.1082C11.5666 12.1739 11.502 12.2292 11.4702 12.2651C11.4387 12.3031 11.428 12.3187 11.4088 12.381C11.3976 12.4224 11.3859 12.4881 11.3859 12.5898C11.3859 12.8715 11.3859 13.103 11.3859 13.103C11.3859 13.3684 11.1707 13.584 10.9051 13.584H9.74632C9.48074 13.584 9.26512 13.3684 9.26512 13.103C9.26512 13.103 9.26512 12.8715 9.26512 12.5898C9.26512 12.3257 9.29596 12.0671 9.36376 11.8197C9.43087 11.5732 9.53664 11.339 9.67171 11.1349C9.94237 10.7214 10.3092 10.4458 10.6554 10.2539C10.959 10.0868 11.2593 9.94815 11.5379 9.79123C11.8164 9.63566 12.0647 9.46679 12.2476 9.28378C12.3701 9.16176 12.4654 9.03564 12.5382 8.89331C12.634 8.70349 12.7005 8.48041 12.702 8.13908C12.7025 8.03806 12.6734 7.90521 12.594 7.75333C12.515 7.60214 12.3862 7.43775 12.2141 7.29026C11.8675 6.99298 11.3592 6.77572 10.7763 6.7767C10.1084 6.77908 9.66125 6.93568 9.31668 7.13026C8.97379 7.32615 8.86432 7.5238 8.86432 7.5238C8.68926 7.6763 8.42943 7.68171 8.24806 7.53668L7.35761 6.82313C7.24609 6.73401 7.18034 6.60009 7.1773 6.45703C7.17472 6.31433 7.23575 6.17771 7.34387 6.08383C7.34387 6.08383 7.62134 5.65603 8.26471 5.28894C8.90537 4.92013 9.75448 4.65369 10.7763 4.65611C11.6055 4.65611 12.3693 4.88424 13.0022 5.25744C13.6352 5.63265 14.1464 6.14929 14.4726 6.76994C14.6892 7.18313 14.8223 7.6489 14.8226 8.13904C14.8231 8.62282 14.7426 9.07465 14.594 9.47635Z" fill="white"/>
</g>
<defs>
<clipPath id="clip0_2_223">
<rect width="21" height="21" fill="white" transform="translate(0.5 0.5)"/>
</clipPath>
</defs>
</svg>
