<svg xmlns="http://www.w3.org/2000/svg" width="32" height="32" viewBox="0 0 32 32" fill="none">
  <path d="M4.23598 27.3287C4.26865 27.3321 4.30198 27.3334 4.33465 27.3334C4.80665 27.3334 5.21998 27.0007 5.31465 26.5294C6.71332 19.5321 14.006 19.0341 17.334 19.1887V24.3334C17.334 24.7374 17.5773 25.1021 17.9513 25.2574C18.3247 25.4114 18.7547 25.3267 19.0413 25.0407L28.3747 15.7074C28.7653 15.3174 28.7653 14.6834 28.3747 14.2934L19.0413 4.96008C18.7553 4.67408 18.3253 4.58808 17.9513 4.74341C17.5773 4.89741 17.334 5.26208 17.334 5.66675V10.7967C13.5787 11.2874 3.33398 13.7781 3.33398 26.3334C3.33398 26.8474 3.72398 27.2781 4.23598 27.3287Z" fill="white"/>
</svg>