<svg xmlns="http://www.w3.org/2000/svg" width="25" height="24" viewBox="0 0 25 24" fill="none">
  <path d="M11.4256 4.73601C11.7638 3.69509 13.2364 3.69509 13.5746 4.73601L14.783 8.45515C14.9343 8.92067 15.3681 9.23584 15.8576 9.23584H19.7681C20.8626 9.23584 21.3177 10.6364 20.4322 11.2797L17.2685 13.5783C16.8725 13.866 16.7068 14.3759 16.8581 14.8414L18.0665 18.5606C18.4047 19.6015 17.2133 20.4671 16.3279 19.8238L13.1642 17.5252C12.7682 17.2375 12.232 17.2375 11.836 17.5252L8.67231 19.8238C7.78685 20.4671 6.59548 19.6015 6.93369 18.5606L8.14212 14.8414C8.29337 14.3759 8.12767 13.866 7.73169 13.5783L4.56799 11.2797C3.68254 10.6364 4.1376 9.23584 5.23209 9.23584H9.14263C9.63209 9.23584 10.0659 8.92067 10.2171 8.45515L11.4256 4.73601Z" fill="#F8DD00"/>
</svg>