<svg xmlns="http://www.w3.org/2000/svg" width="32" height="32" viewBox="0 0 32 32" fill="none">
  <g clip-path="url(#clip0_10856_4898)">
    <path opacity="0.35" d="M25.3332 32.0003C29.0151 32.0003 31.9998 29.0156 31.9998 25.3337C31.9998 21.6518 29.0151 18.667 25.3332 18.667C21.6513 18.667 18.6665 21.6518 18.6665 25.3337C18.6665 29.0156 21.6513 32.0003 25.3332 32.0003Z" fill="white"/>
    <path opacity="0.35" d="M16.0002 16.0003C19.6821 16.0003 22.6668 13.0156 22.6668 9.33366C22.6668 5.65176 19.6821 2.66699 16.0002 2.66699C12.3183 2.66699 9.3335 5.65176 9.3335 9.33366C9.3335 13.0156 12.3183 16.0003 16.0002 16.0003Z" fill="white"/>
    <path d="M24 28.667V22.0003C24 21.2643 24.5973 20.667 25.3333 20.667C26.0693 20.667 26.6667 21.2643 26.6667 22.0003V28.667C26.6667 29.403 26.0693 30.0003 25.3333 30.0003C24.5973 30.0003 24 29.403 24 28.667Z" fill="white"/>
    <path d="M21.9998 24H28.6665C29.4025 24 29.9998 24.5973 29.9998 25.3333C29.9998 26.0693 29.4025 26.6667 28.6665 26.6667H21.9998C21.2638 26.6667 20.6665 26.0693 20.6665 25.3333C20.6665 24.5973 21.2638 24 21.9998 24Z" fill="white"/>
    <path d="M18.6667 25.3333C18.6667 23.1427 19.7387 21.2147 21.3693 20H8C5.79067 20 4 21.7907 4 24C4 26.2093 5.79067 28 8 28H19.2293C18.872 27.1827 18.6667 26.2827 18.6667 25.3333Z" fill="white"/>
  </g>
  <defs>
    <clipPath id="clip0_10856_4898">
      <rect width="32" height="32" fill="white"/>
    </clipPath>
  </defs>
</svg>