<svg xmlns="http://www.w3.org/2000/svg" width="20" height="20" viewBox="0 0 20 20" fill="none">
  <path d="M11.6667 2.5H4.16667C3.24619 2.5 2.5 3.24619 2.5 4.16667C2.5 5.08714 3.24619 5.83333 4.16667 5.83333H15C15 5.05836 15 4.67087 14.9148 4.35295C14.6837 3.49022 14.0097 2.81635 13.1471 2.58518C12.8292 2.5 12.4417 2.5 11.6667 2.5Z" stroke="#A8A8A8" stroke-width="1.5" stroke-linecap="round" stroke-linejoin="round"/>
  <path d="M2.5 4.16699V12.5003C2.5 14.8573 2.5 16.0358 3.23223 16.7681C3.96447 17.5003 5.14297 17.5003 7.5 17.5003H12.5C14.857 17.5003 16.0355 17.5003 16.7677 16.7681C17.5 16.0358 17.5 14.8573 17.5 12.5003V10.8337C17.5 8.47666 17.5 7.29813 16.7677 6.56589C16.0355 5.83366 14.857 5.83366 12.5 5.83366H5.83333" stroke="#A8A8A8" stroke-width="1.5" stroke-linecap="round" stroke-linejoin="round"/>
  <path d="M17.5001 10H15.8334C15.4459 10 15.2522 10 15.0932 10.0426C14.6618 10.1582 14.3249 10.4951 14.2093 10.9265C14.1667 11.0854 14.1667 11.2792 14.1667 11.6667C14.1667 12.0542 14.1667 12.2479 14.2093 12.4068C14.3249 12.8382 14.6618 13.1752 15.0932 13.2908C15.2522 13.3333 15.4459 13.3333 15.8334 13.3333H17.5001" stroke="#A8A8A8" stroke-width="1.5" stroke-linecap="round" stroke-linejoin="round"/>
</svg>